<?xml version="1.0" encoding="UTF-8"?><svg id="_イヤー_2" xmlns="http://www.w3.org/2000/svg" viewBox="0 0 592.36 105.8"><defs><style>.cls-1{fill:none;stroke-miterlimit:10;}.cls-1,.cls-2{stroke:#eaeaea;stroke-width:4px;}.cls-3,.cls-2{fill:#eaeaea;}.cls-2{stroke-linecap:round;stroke-linejoin:round;}</style></defs><g id="_イヤー_1-2"><path class="cls-3" d="M592.36,71.49c0-16.26-11.96-29.73-27.56-32.1,.48-2.23,.75-4.54,.75-6.92,0-17.93-14.54-32.47-32.47-32.47-16.73,0-30.5,12.66-32.27,28.92-2.88-1.6-6.19-2.52-9.72-2.52-9.99,0-18.25,7.3-19.79,16.86-4.75-2.73-10.26-4.3-16.14-4.3-17.93,0-32.47,14.54-32.47,32.47s14.18,32.09,31.8,32.45v.07h106v-.02c17.65-.32,31.86-14.72,31.86-32.45Z"/><g><ellipse class="cls-1" cx="143.1" cy="28.84" rx="26.9" ry="26.69"/><path class="cls-3" d="M142.93,19.07c0-6.51-.64-12.83-1.82-18.92H3.87c-1.18,6.08-1.82,12.41-1.82,18.92,0,44.36,28.85,80.65,65.4,83.74h10.08c36.55-3.08,65.4-39.38,65.4-83.74Z"/><line class="cls-2" x1="142.92" y1="103.8" x2="2" y2="103.8"/></g><path class="cls-3" d="M340.98,103.48V40.1h39.79V.48h-53.37c-4.2,12.65-16.26,21.79-30.5,21.79s-26.3-9.14-30.5-21.79h-53.63V39.8h39.96v63.68h88.25Z"/></g></svg>