<?xml version="1.0" encoding="UTF-8"?><svg id="_レイヤー_2" xmlns="http://www.w3.org/2000/svg" viewBox="0 0 579.28 103"><defs><style>.cls-1{fill:none;}.cls-1,.cls-2{stroke:#707070;stroke-linecap:round;stroke-linejoin:round;stroke-width:3px;}.cls-2{fill:#707070;}</style></defs><g id="_レイヤー_3"><g><circle class="cls-1" cx="554.78" cy="29.44" r="23"/><path class="cls-2" d="M420.8,6.45c-3.2,9.83-2.93,17.77-2.93,20.12,0,38.66,31.34,70,70,70s70-31.34,70-70c0-2.07,.26-10.11-3-20.08l-134.06-.04Z"/><line class="cls-1" x1="417.91" y1="96.56" x2="557.86" y2="96.56"/></g><path class="cls-2" d="M229.67,101.44h120V61.56l20-20L329.67,1.56l-29.98,.25c0,5.52-4.5,10.25-10.02,10.25s-9.98-4.72-9.98-10.25c-10,0-19.98-.21-29.98-.2l-40.05,39.95c6.67,6.67,13.33,13.33,20,20v39.89Z"/><path class="cls-2" d="M31.5,101.5c37.64,0,52.36,0,90,0,22.09,0,40.03-17.91,40.03-40s-17.91-40-40-40c-3.88,0-7.63,.56-11.18,1.59-3.64-12.48-15.15-21.59-28.8-21.59s-26.14,9.91-29.22,23.2c-3.12-2.02-6.84-3.2-10.83-3.2-11.05,0-20,8.95-20,20,0,.57,.04,1.13,.09,1.68C9.89,47.28,1.5,58.41,1.5,71.5c0,16.57,13.43,30,30,30Z"/></g></svg>